<?xml version="1.0" encoding="UTF-8" standalone="no"?>
<!-- Created with Inkscape (http://www.inkscape.org/) -->

<svg
   width="145.84689mm"
   height="43.0784mm"
   viewBox="0 0 145.84689 43.0784"
   version="1.1"
   id="svg5"
   inkscape:version="1.1.1 (3bf5ae0d25, 2021-09-20, custom)"
   sodipodi:docname="logo.svg"
   xmlns:inkscape="http://www.inkscape.org/namespaces/inkscape"
   xmlns:sodipodi="http://sodipodi.sourceforge.net/DTD/sodipodi-0.dtd"
   xmlns="http://www.w3.org/2000/svg"
   xmlns:svg="http://www.w3.org/2000/svg">
  <sodipodi:namedview
     id="namedview7"
     pagecolor="#505050"
     bordercolor="#eeeeee"
     borderopacity="1"
     inkscape:pageshadow="0"
     inkscape:pageopacity="0"
     inkscape:pagecheckerboard="0"
     inkscape:document-units="mm"
     showgrid="false"
     inkscape:zoom="0.77058782"
     inkscape:cx="352.32843"
     inkscape:cy="320.53452"
     inkscape:window-width="1916"
     inkscape:window-height="1061"
     inkscape:window-x="0"
     inkscape:window-y="15"
     inkscape:window-maximized="1"
     inkscape:current-layer="layer1" />
  <defs
     id="defs2" />
  <g
     inkscape:label="Layer 1"
     inkscape:groupmode="layer"
     id="layer1"
     transform="translate(-21.466214,-7.0508355)">
    <g
       aria-label="DDVN"
       id="text2696"
       style="font-size:50.8px;line-height:1.25;font-family:Z003;-inkscape-font-specification:Z003;stroke-width:0.264583">
      <path
         d="m 21.466214,41.848835 h 6.4516 c 8.3312,0 10.414,-0.1524 13.1064,-1.1176 4.064,-1.3716 8.2296,-4.0132 10.2108,-6.4516 2.590799,-3.2004 4.419599,-8.5344 4.419599,-12.8524 0,-3.5052 -1.8288,-6.1468 -5.283199,-7.6708 -2.1844,-0.9652 -4.7752,-1.3716 -9.7028,-1.6764 l 0.3556,-1.4224 -3.6576,1.524 c -4.1656,0.7112 -6.8072,1.6256 -9.4996,3.3528 -4.318,2.794 -6.4008,6.1976 -6.4008,10.5664 0,0.9652 0.0508,1.5748 0.3556,2.8448 l 4.1656,-1.8796 c -0.3048,-1.3208 -0.3556,-1.8796 -0.3556,-2.8448 0,-6.0452 3.7592,-9.6012 10.8712,-10.3124 l -3.81,15.1384 c -1.9812,8.4836 -3.302,10.0584 -8.7884,10.4648 z m 18.796,-28.194 c 3.7592,0.1524 5.4356,0.4572 7.0104,1.27 2.4892,1.3208 3.9624,4.1148 3.9624,7.5184 0,4.4196 -1.6764,9.8044 -3.9624,12.7 -2.4892,3.2004 -5.4864,4.4196 -10.7188,4.4196 h -0.762 l -6.5024,-0.2032 c 5.8928,-5.4864 5.8928,-5.4864 8.1788,-14.6812 z"
         style="font-style:italic;font-weight:bold;-inkscape-font-specification:'Z003 Medium Italic';fill:#990000"
         id="path20005" />
      <path
         d="m 57.026253,41.848835 h 6.4516 c 8.3312,0 10.414,-0.1524 13.1064,-1.1176 4.064,-1.3716 8.2296,-4.0132 10.2108,-6.4516 2.5908,-3.2004 4.4196,-8.5344 4.4196,-12.8524 0,-3.5052 -1.8288,-6.1468 -5.2832,-7.6708 -2.1844,-0.9652 -4.7752,-1.3716 -9.7028,-1.6764 l 0.3556,-1.4224 -3.6576,1.524 c -4.1656,0.7112 -6.8072,1.6256 -9.4996,3.3528 -4.318,2.794 -6.4008,6.1976 -6.4008,10.5664 0,0.9652 0.0508,1.5748 0.3556,2.8448 l 4.1656,-1.8796 c -0.3048,-1.3208 -0.3556,-1.8796 -0.3556,-2.8448 0,-6.0452 3.7592,-9.6012 10.8712,-10.3124 l -3.81,15.1384 c -1.9812,8.4836 -3.302,10.0584 -8.7884,10.4648 z m 18.796,-28.194 c 3.7592,0.1524 5.4356,0.4572 7.0104,1.27 2.4892,1.3208 3.9624,4.1148 3.9624,7.5184 0,4.4196 -1.6764,9.8044 -3.9624,12.7 -2.4892,3.2004 -5.4864,4.4196 -10.7188,4.4196 h -0.762 l -6.5024,-0.2032 c 5.8928,-5.4864 5.8928,-5.4864 8.1788,-14.6812 z"
         style="font-style:italic;font-weight:bold;-inkscape-font-specification:'Z003 Medium Italic';fill:#990000"
         id="path20002" />
      <path
         d="m 109.85833,14.467635 c 1.1684,-0.5588 1.524,-0.762 2.286,-1.3716 -2.3876,-0.3048 -3.556,-0.3556 -5.1816,-0.3556 -3.9624,0 -6.4516,0.762 -8.940798,2.6416 -2.794,2.1336 -4.4196,5.1308 -4.4196,8.1788 0,1.3716 0.2032,2.286 0.9144,3.9116 l 3.8608,-2.1336 c -0.6604,-1.6764 -0.8636,-2.6416 -0.8636,-4.064 0,-3.9116 2.590798,-6.7056 6.197598,-6.7056 0.5588,0 1.3208,0.0508 2.1844,0.1524 -1.3208,10.2616 -3.302,23.6728 -4.1148,27.7368 1.4224,-0.254 1.6256,-0.3048 3.7592,-0.8128 1.8288,-2.0828 2.1844,-2.3876 5.4864,-5.8928 7.9248,-8.128 11.9888,-12.5984 14.1224,-15.4432 2.8448,-3.9116 4.2672,-7.2136 4.2672,-10.0076 0,-0.9143995 -0.1016,-1.4223995 -0.4572,-2.3875995 -1.016,-0.6096 -1.4224,-0.762 -2.6416,-0.8636 -1.3716,0.6096 -1.9304,1.016 -3.0988,2.032 1.3208,1.1175995 1.778,2.0827995 1.778,3.8099995 0,2.7432 -1.6764,6.5024 -4.6228,10.3124 -2.7432,3.556 -4.7244,5.6388 -13.9192,14.5796 z"
         style="font-style:italic;font-weight:bold;-inkscape-font-specification:'Z003 Medium Italic';fill:#990000"
         id="path19999" />
      <path
         d="m 122.8631,41.848835 c 1.3208,0.1016 1.9812,0.1524 2.794,0.1524 2.1844,0 3.556,-0.3048 4.8768,-1.1176 2.4892,-1.524 5.0292,-5.08 6.6548,-9.398 0.8128,-2.1336 1.1176,-3.2512 3.302,-12.0904 1.27,5.4864 1.27,5.5372 1.8288,7.874 1.4224,5.842 2.8448,10.2108 4.4704,13.462 3.0988,6.2992 7.5692,9.398 13.5636,9.398 2.5908,0 4.4196,-0.4572 6.7056,-1.778 l -1.2192,-4.5212 c -1.524,3.556 -2.9464,4.9276 -5.1816,4.9276 -3.2004,0 -6.1468,-2.4892 -8.7376,-7.4168 0.8636,-4.3688 1.27,-6.35 2.5908,-11.684 2.1844,-8.8392 3.302,-12.4968 4.9276,-15.8496 1.0668,-2.1844 2.286,-2.9464 4.6228,-2.9464 0.4064,0 0.7112,0 1.3716,0.1016 l 1.8796,-3.4035995 c -0.6096,-0.0508 -1.1684,-0.1016 -1.5748,-0.1016 -2.1336,0 -4.4196,1.4732 -7.0612,4.5719995 -2.4384,2.8448 -3.3528,5.3848 -5.842,16.4084 -0.508,2.3876 -1.0668,4.7752 -1.6256,7.2136 -0.0508,0.254 -0.3048,1.3208 -0.762,2.8956 -2.1844,-4.2164 -3.4036,-7.9248 -7.5692,-23.6728 l -0.9144,-3.302 -1.7272,1.5748 c -1.2192,-0.1016 -1.8288,-0.1524 -2.794,-0.1524 -3.0988,0 -4.8768,0.5588 -6.7564,1.9812 -3.2004,2.54 -5.4356,6.1976 -5.4356,8.9916 0,1.3208 0.3556,2.5908 1.27,4.4704 l 3.5052,-2.3876 c -1.27,-2.7432 -1.6256,-3.81 -1.6256,-5.1308 0,-1.524 0.8636,-2.8956 2.286,-3.6576 1.2192,-0.6604 2.3876,-0.8636 4.7752,-0.8636 1.27,0 2.0828,0 3.8608,0.1016 -2.3368,10.2108 -4.318,16.6116 -5.9944,19.6088 -1.0668,1.8796 -2.1844,2.4384 -4.8768,2.4384 -1.0668,0 -1.7272,-0.0508 -3.1496,-0.2032 z"
         style="font-style:italic;font-weight:bold;-inkscape-font-specification:'Z003 Medium Italic';fill:#990000"
         id="path19996" />
    </g>
  </g>
</svg>
