<?xml version="1.0" encoding="UTF-8" standalone="no"?>
<!-- Created with Inkscape (http://www.inkscape.org/) -->

<svg
   width="277.43573mm"
   height="80.567558mm"
   viewBox="0 0 277.43573 80.567558"
   version="1.1"
   id="svg5"
   inkscape:version="1.1.1 (3bf5ae0d25, 2021-09-20, custom)"
   sodipodi:docname="title.svg"
   xmlns:inkscape="http://www.inkscape.org/namespaces/inkscape"
   xmlns:sodipodi="http://sodipodi.sourceforge.net/DTD/sodipodi-0.dtd"
   xmlns="http://www.w3.org/2000/svg"
   xmlns:svg="http://www.w3.org/2000/svg">
  <sodipodi:namedview
     id="namedview7"
     pagecolor="#505050"
     bordercolor="#eeeeee"
     borderopacity="1"
     inkscape:pageshadow="0"
     inkscape:pageopacity="0"
     inkscape:pagecheckerboard="0"
     inkscape:document-units="mm"
     showgrid="false"
     inkscape:zoom="0.77058782"
     inkscape:cx="425.00023"
     inkscape:cy="317.9391"
     inkscape:window-width="1916"
     inkscape:window-height="1061"
     inkscape:window-x="0"
     inkscape:window-y="15"
     inkscape:window-maximized="1"
     inkscape:current-layer="layer1" />
  <defs
     id="defs2" />
  <g
     inkscape:label="Layer 1"
     inkscape:groupmode="layer"
     id="layer1"
     transform="translate(-3.9188844,-64.174489)">
    <g
       aria-label="DemonDice
"
       id="text3488"
       style="font-size:50.8px;line-height:1.25;font-family:Z003;-inkscape-font-specification:Z003;stroke-width:0.264583">
      <path
         d="m 3.9188844,105.8982 h 8.6021286 c 11.108262,0 13.885327,-0.2032 17.475192,-1.49013 5.418664,-1.8288 10.972794,-5.350932 13.614393,-8.602131 3.454398,-4.267197 5.892797,-11.379194 5.892797,-17.136524 0,-4.673598 -2.438399,-8.19573 -7.044263,-10.227728 -2.912532,-1.286933 -6.36693,-1.8288 -12.93706,-2.235199 l 0.474133,-1.896533 -4.876798,2.031999 c -5.55413,0.948266 -9.076262,2.167466 -12.666127,4.470398 -5.7573303,3.725331 -8.5343956,8.263462 -8.5343956,14.088526 0,1.286933 0.067733,2.099732 0.4741331,3.793065 L 9.9471481,86.187811 C 9.5407483,84.426745 9.473015,83.681679 9.473015,82.394746 c 0,-8.060262 5.012264,-12.801593 14.494926,-13.74986 L 18.887944,88.82941 C 16.246345,100.14087 14.485279,102.2406 7.1700828,102.78247 Z M 28.980205,68.30622 c 5.012264,0.2032 7.247463,0.6096 9.347195,1.693332 3.318932,1.761066 5.283198,5.486398 5.283198,10.024529 0,5.892797 -2.235199,13.072526 -5.283198,16.933324 -3.318931,4.267195 -7.315196,5.892795 -14.291726,5.892795 h -1.015999 l -8.669862,-0.27093 c 7.857062,-7.315197 7.857062,-7.315197 10.905061,-19.574924 z"
         style="font-size:67.7333px;fill:#990000"
         id="path18725" />
      <path
         d="m 71.245835,96.618739 c -5.418664,4.605861 -8.331196,6.299201 -10.905061,6.299201 -1.761066,0 -3.115732,-1.15147 -3.589865,-2.91254 -0.270933,-1.083729 -0.338667,-1.828795 -0.338667,-3.793061 3.115732,-1.964265 5.012265,-3.318931 9.008529,-6.299197 3.725332,-2.777065 5.079998,-5.012264 5.079998,-8.060262 0,-2.370666 -1.4224,-3.793065 -3.860798,-3.793065 -1.490133,0 -2.506132,0.338666 -4.131732,1.219199 -2.573865,1.490133 -4.876797,3.318932 -6.231463,4.944531 -2.573866,3.115732 -4.876798,10.566395 -4.876798,16.052795 0,3.99626 2.099733,6.50239 5.554131,6.50239 3.996265,0 9.143995,-2.98026 14.223993,-8.195725 z M 56.615442,93.77394 c 1.151466,-7.315196 4.199465,-12.869326 7.17973,-12.869326 1.083733,0 1.828799,1.083732 1.828799,2.777065 0,3.386665 -1.964266,5.55413 -9.008529,10.092261 z"
         style="font-size:67.7333px;fill:#990000"
         id="path18722" />
      <path
         d="m 74.767972,106.57553 4.809064,-1.8288 4.334932,-16.459187 c 4.402664,-3.047998 7.315196,-4.673597 8.195729,-4.673597 0.541866,0 0.880533,0.541866 0.880533,1.490132 0,2.031999 -2.573866,12.259727 -5.418664,21.471452 l 5.147731,-1.8288 4.199464,-16.93332 c 3.860799,-2.506132 7.518399,-4.538131 8.331199,-4.538131 0.6096,0 0.88053,0.474133 0.88053,1.286933 0,1.490132 -0.6096,4.538131 -2.4384,11.514661 -1.016,4.199467 -1.35466,5.892797 -1.35466,7.450667 0,1.42239 0.33866,2.16746 1.62559,3.04799 3.92854,-1.96426 7.7216,-4.40266 11.44693,-7.382926 l 0.0677,-1.557866 c -5.75734,3.522132 -5.75734,3.522132 -6.7056,3.522132 -0.74507,0 -1.2192,-0.67733 -1.2192,-1.761066 0,-1.557866 0.8128,-5.14773 2.2352,-10.159995 2.16746,-7.518396 2.57386,-9.076262 2.57386,-10.159995 0,-0.677333 -0.33866,-1.015999 -1.08373,-1.015999 -1.2192,0 -5.41866,2.167466 -13.682126,7.044263 0.270933,-1.219199 0.270933,-1.219199 0.880533,-3.860798 0.270933,-1.015999 0.474133,-2.167466 0.474133,-2.438399 0,-0.474133 -0.338666,-0.745066 -0.880533,-0.745066 -1.151466,0 -3.725331,1.422399 -13.478926,7.58613 1.083732,-4.605865 1.422399,-6.163731 1.422399,-6.637864 0,-0.6096 -0.4064,-0.948266 -1.016,-0.948266 -0.677333,0 -1.422399,0.4064 -4.809064,2.302932 -4.470398,2.573866 -4.470398,2.573866 -5.689597,3.386665 l -0.474133,1.896533 c 3.589865,-1.8288 4.199464,-2.031999 5.012264,-2.031999 0.541866,0 0.948266,0.541866 0.948266,1.286932 0,1.016 -0.2032,1.896533 -2.912532,12.666127 -0.609599,2.167466 -1.151466,4.402665 -1.693332,6.637865 z"
         style="font-size:67.7333px;fill:#990000"
         id="path18719" />
      <path
         d="m 134.84747,78.059815 c -2.70933,0 -7.04426,1.964266 -11.04053,4.944531 -4.33493,3.251198 -7.38293,10.295461 -7.38293,17.068794 0,4.064 2.30293,6.70559 5.8928,6.70559 1.89653,0 3.8608,-0.67733 6.90879,-2.30293 3.38667,-1.89653 5.62187,-3.58986 6.84107,-5.147729 2.70933,-3.725331 4.8768,-10.363195 4.8768,-15.036792 0,-3.657599 -2.50614,-6.231464 -6.096,-6.231464 z m -3.52213,3.183465 c 2.70933,0 4.40266,2.573865 4.40266,6.705597 0,2.912532 -0.94826,6.36693 -2.57386,9.685861 -1.96427,3.860802 -4.40267,5.960532 -6.97653,5.960532 -2.77707,0 -4.53814,-2.50613 -4.53814,-6.366931 0,-7.857063 4.94454,-15.985059 9.68587,-15.985059 z"
         style="font-size:67.7333px;fill:#990000"
         id="path18716" />
      <path
         d="m 148.73277,104.61127 3.99626,-15.917327 1.69333,-1.083733 c 6.2992,-3.928531 7.04427,-4.334931 7.99253,-4.334931 0.4064,0 0.67734,0.338667 0.67734,0.880533 0,1.083733 -0.47414,3.047998 -2.50614,11.311461 -1.49013,5.960527 -1.76106,7.179727 -1.76106,8.466667 0,0.94826 0.27093,1.76106 1.016,3.04799 3.048,-1.35466 7.78933,-4.33493 12.53066,-7.857059 l 0.47413,-1.896532 c -6.57013,3.793061 -7.04426,3.996261 -7.72159,3.996261 -0.67734,0 -1.08374,-0.67733 -1.08374,-1.828796 0,-1.828799 0.27094,-2.980265 3.2512,-13.749859 1.69333,-6.028264 1.69333,-6.028264 1.69333,-6.434664 0,-0.745066 -0.47413,-1.151466 -1.28693,-1.151466 -1.49013,0 -1.69333,0.135467 -9.00853,4.605864 -2.70933,1.693333 -4.4704,2.777066 -5.2832,3.318932 0.67734,-2.370665 1.6256,-6.502397 1.6256,-7.044263 0,-0.541867 -0.33866,-0.880533 -0.88053,-0.880533 -0.74507,0 -5.35093,2.370665 -10.63413,5.486397 l -0.4064,1.761066 c 4.33493,-1.964266 4.60587,-2.031999 5.21547,-2.031999 0.47413,0 0.8128,0.4064 0.8128,0.948266 0,1.490133 -1.2192,6.908797 -2.98027,13.207994 l -1.55786,5.486401 c -0.13547,0.47413 -0.47414,1.76106 -0.94827,3.65759 z"
         style="font-size:67.7333px;fill:#990000"
         id="path18713" />
      <path
         d="m 174.60683,105.8982 h 8.60213 c 11.10826,0 13.88532,-0.2032 17.47519,-1.49013 5.41866,-1.8288 10.97279,-5.350932 13.61439,-8.602131 3.4544,-4.267197 5.8928,-11.379194 5.8928,-17.136524 0,-4.673598 -2.4384,-8.19573 -7.04427,-10.227728 -2.91253,-1.286933 -6.36693,-1.8288 -12.93706,-2.235199 l 0.47414,-1.896533 -4.8768,2.031999 c -5.55413,0.948266 -9.07626,2.167466 -12.66613,4.470398 -5.75733,3.725331 -8.53439,8.263462 -8.53439,14.088526 0,1.286933 0.0677,2.099732 0.47413,3.793065 l 5.55413,-2.506132 c -0.4064,-1.761066 -0.47413,-2.506132 -0.47413,-3.793065 0,-8.060262 5.01226,-12.801593 14.49492,-13.74986 l -5.07999,20.184524 c -2.6416,11.31146 -4.40267,13.41119 -11.71786,13.95306 z m 25.06132,-37.59198 c 5.01226,0.2032 7.24746,0.6096 9.34719,1.693332 3.31893,1.761066 5.2832,5.486398 5.2832,10.024529 0,5.892797 -2.2352,13.072526 -5.2832,16.933324 -3.31893,4.267195 -7.31519,5.892795 -14.29172,5.892795 h -1.016 l -8.66986,-0.27093 c 7.85706,-7.315197 7.85706,-7.315197 10.90506,-19.574924 z"
         style="font-size:67.7333px;fill:#990000"
         id="path18710" />
      <path
         d="m 234.68631,64.174489 c -1.89653,1.490132 -3.45439,2.709332 -4.67359,3.522131 0.47413,1.422399 1.08373,2.573866 2.57386,4.741331 1.89653,-1.693332 2.09973,-1.896532 4.40267,-3.657598 -0.2032,-0.4064 -0.33867,-0.677333 -0.88054,-1.557866 -0.4064,-0.812799 -0.47413,-0.812799 -1.016,-2.167465 z m 2.57387,33.866649 -1.15147,0.6096 c -4.67359,2.573862 -5.48639,2.912532 -6.29919,2.912532 -0.74507,0 -1.2192,-0.74507 -1.2192,-1.896533 0,-1.151466 0,-1.151466 2.2352,-10.092261 2.50613,-10.295462 2.50613,-10.295462 2.50613,-10.837328 0,-0.4064 -0.33867,-0.677333 -0.8128,-0.677333 -1.15147,0 -5.14773,2.235199 -10.70186,5.96053 l -0.13547,1.896533 c 4.13173,-2.235199 4.33493,-2.302932 4.94453,-2.302932 0.54187,0 0.8128,0.406399 0.8128,1.151466 0,0.948266 -0.2032,1.896532 -1.2192,5.75733 -3.18346,11.785598 -3.18346,11.785598 -3.18346,13.546658 0,1.6256 0.6096,2.70933 1.6256,2.70933 1.15146,0 2.98026,-0.88053 6.57013,-3.18346 1.28693,-0.8128 2.57386,-1.6256 3.86079,-2.50613 0.6096,-0.33867 1.08374,-0.67734 1.89654,-1.151469 z"
         style="font-size:67.7333px;fill:#990000"
         id="path18707" />
      <path
         d="m 258.39296,97.296072 c -5.14773,3.725328 -8.80533,5.621868 -10.9728,5.621868 -2.43839,0 -3.86079,-1.89654 -3.86079,-5.147735 0,-3.318932 0.8128,-7.586129 2.09973,-10.769595 1.4224,-3.589864 3.11573,-5.418663 5.08,-5.418663 1.6256,0 2.50613,1.286932 2.84479,4.267197 l 3.92854,-2.302932 c 0.0677,-0.338666 0.0677,-0.677333 0.0677,-0.812799 0,-2.912532 -1.49013,-4.673598 -3.8608,-4.673598 -1.28693,0 -1.89653,0.270933 -4.40266,1.896532 -5.08,3.183465 -6.16373,4.199465 -7.65387,6.97653 -1.89653,3.657598 -3.31893,9.414929 -3.31893,13.614393 0,3.99627 1.76107,6.23146 4.94453,6.23146 3.2512,0 8.66987,-2.64159 14.96906,-7.315192 z"
         style="font-size:67.7333px;fill:#990000"
         id="path18704" />
      <path
         d="m 281.3546,96.618739 c -5.41866,4.605861 -8.3312,6.299201 -10.90506,6.299201 -1.76107,0 -3.11573,-1.15147 -3.58987,-2.91254 -0.27093,-1.083729 -0.33866,-1.828795 -0.33866,-3.793061 3.11573,-1.964265 5.01226,-3.318931 9.00853,-6.299197 3.72533,-2.777065 5.07999,-5.012264 5.07999,-8.060262 0,-2.370666 -1.4224,-3.793065 -3.86079,-3.793065 -1.49014,0 -2.50614,0.338666 -4.13174,1.219199 -2.57386,1.490133 -4.87679,3.318932 -6.23146,4.944531 -2.57386,3.115732 -4.8768,10.566395 -4.8768,16.052795 0,3.99626 2.09974,6.50239 5.55413,6.50239 3.99627,0 9.144,-2.98026 14.224,-8.195725 z M 266.72421,93.77394 c 1.15146,-7.315196 4.19946,-12.869326 7.17973,-12.869326 1.08373,0 1.8288,1.083732 1.8288,2.777065 0,3.386665 -1.96427,5.55413 -9.00853,10.092261 z"
         style="font-size:67.7333px;fill:#990000"
         id="path18701" />
    </g>
    <g
       aria-label="Visual Novel"
       id="text11132"
       style="font-size:38.1px;line-height:1.25;font-family:Z003;-inkscape-font-specification:Z003;stroke-width:0.264583">
      <path
         d="m 56.315536,117.99585 c 0.8763,-0.4191 1.143,-0.5715 1.7145,-1.0287 -1.7907,-0.2286 -2.667,-0.2667 -3.8862,-0.2667 -2.9718,0 -4.8387,0.5715 -6.7056,1.9812 -2.0955,1.6002 -3.3147,3.8481 -3.3147,6.1341 0,1.0287 0.1524,1.7145 0.6858,2.9337 l 2.8956,-1.6002 c -0.4953,-1.2573 -0.6477,-1.9812 -0.6477,-3.048 0,-2.9337 1.9431,-5.0292 4.6482,-5.0292 0.4191,0 0.9906,0.0381 1.6383,0.1143 -0.9906,7.6962 -2.4765,17.7546 -3.0861,20.8026 1.0668,-0.1905 1.2192,-0.2286 2.8194,-0.6096 1.3716,-1.5621 1.6383,-1.7907 4.1148,-4.4196 5.9436,-6.096 8.9916,-9.4488 10.5918,-11.5824 2.133599,-2.9337 3.200399,-5.4102 3.200399,-7.5057 0,-0.6858 -0.0762,-1.0668 -0.3429,-1.7907 -0.762,-0.4572 -1.0668,-0.5715 -1.9812,-0.6477 -1.028699,0.4572 -1.447799,0.762 -2.324099,1.524 0.9906,0.8382 1.3335,1.5621 1.3335,2.8575 0,2.0574 -1.2573,4.8768 -3.4671,7.7343 -2.0574,2.667 -3.5433,4.2291 -10.4394,10.9347 z"
         style="fill:#990000"
         id="path18758" />
      <path
         d="m 74.946412,115.06215 c -1.0668,0.8382 -1.9431,1.524 -2.6289,1.9812 0.2667,0.8001 0.6096,1.4478 1.4478,2.667 1.0668,-0.9525 1.1811,-1.0668 2.4765,-2.0574 -0.1143,-0.2286 -0.1905,-0.381 -0.4953,-0.8763 -0.2286,-0.4572 -0.2667,-0.4572 -0.5715,-1.2192 z m 1.4478,19.05 -0.6477,0.3429 c -2.6289,1.4478 -3.0861,1.6383 -3.5433,1.6383 -0.4191,0 -0.6858,-0.4191 -0.6858,-1.0668 0,-0.6477 0,-0.6477 1.2573,-5.6769 1.4097,-5.7912 1.4097,-5.7912 1.4097,-6.096 0,-0.2286 -0.1905,-0.381 -0.4572,-0.381 -0.6477,0 -2.8956,1.2573 -6.0198,3.3528 l -0.0762,1.0668 c 2.3241,-1.2573 2.4384,-1.2954 2.7813,-1.2954 0.3048,0 0.4572,0.2286 0.4572,0.6477 0,0.5334 -0.1143,1.0668 -0.6858,3.2385 -1.7907,6.6294 -1.7907,6.6294 -1.7907,7.62 0,0.9144 0.3429,1.524 0.9144,1.524 0.6477,0 1.6764,-0.4953 3.6957,-1.7907 0.7239,-0.4572 1.4478,-0.9144 2.1717,-1.4097 0.3429,-0.1905 0.6096,-0.381 1.0668,-0.6477 z"
         style="fill:#990000"
         id="path18755" />
      <path
         d="m 75.327402,135.36945 c -0.0381,0.3429 -0.0762,0.6477 -0.0762,0.8763 0,1.6764 1.143,2.7813 2.8194,2.7813 1.2192,0 2.8194,-0.4572 4.0386,-1.1811 2.286,-1.2954 3.6195,-3.2385 3.6195,-5.1435 0,-1.4097 -0.2286,-1.7145 -2.4003,-3.048 -1.2954,-0.8382 -1.8288,-1.5621 -1.8288,-2.5527 0,-1.2954 1.1049,-2.4384 2.4003,-2.4384 0.8763,0 1.5621,0.4191 2.3622,1.4859 1.2954,-1.2573 1.2954,-1.2573 1.7907,-1.9812 -0.762,-0.9144 -1.4859,-1.2954 -2.5527,-1.2954 -2.7813,0 -6.3627,3.2766 -6.3627,5.8293 0,1.1811 0.6096,2.0955 2.0574,3.1242 1.905,1.3335 2.1717,1.6764 2.1717,2.6289 0,1.3716 -1.7526,2.9718 -3.2385,2.9718 -0.8382,0 -1.4859,-0.4572 -1.8669,-1.2954 -0.2667,-0.5715 -0.3429,-1.143 -0.381,-2.4765 -0.4191,0.3429 -0.7239,0.5334 -0.8763,0.6477 -0.3048,0.1905 -0.6477,0.381 -0.9906,0.6096 -0.0381,0 -0.381,0.2667 -0.6858,0.4572 z"
         style="fill:#990000"
         id="path18752" />
      <path
         d="m 98.454092,133.50255 c -2.8956,1.9812 -4.2291,2.7813 -4.7244,2.7813 -0.4191,0 -0.7239,-0.5334 -0.7239,-1.2573 0,-0.8763 0.3048,-2.4003 0.9525,-4.8387 0.381,-1.4478 0.762,-2.8956 0.8001,-3.1242 0.3429,-1.4478 0.6096,-2.4003 0.6858,-2.667 0.1143,-0.4191 0.1905,-0.8001 0.1905,-1.0287 0,-0.3048 -0.1905,-0.4953 -0.4572,-0.4953 -0.381,0 -3.1242,1.4859 -5.9055,3.2004 l -0.2667,1.0287 c 1.6383,-0.8382 2.3241,-1.1049 2.7813,-1.1049 0.3048,0 0.5334,0.2667 0.5334,0.7239 0,0.5334 -0.3429,2.0193 -1.0668,4.7244 -0.9525,3.5814 -1.1811,4.6101 -1.1811,5.715 0,1.0668 0.4572,1.8669 1.0668,1.8669 0.5715,0 1.2192,-0.3429 3.1623,-1.6002 2.9718,-1.905 2.9718,-1.905 3.9243,-2.5527 -0.3429,1.2954 -0.5334,2.5908 -0.5334,3.2766 0,0.5334 0.2667,0.8763 0.6858,0.8763 0.762,0 4.343398,-2.0955 6.972298,-4.0767 l 0.2667,-1.143 c -2.7051,1.6002 -3.9624,2.286 -4.3815,2.286 -0.2667,0 -0.4191,-0.2667 -0.4191,-0.9144 0,-1.9431 1.3716,-7.5819 3.048,-12.4587 -0.4953,0.2667 -0.8382,0.4572 -0.9906,0.5334 -0.4572,0.2286 -0.9144,0.4572 -1.4097,0.6477 -0.1143,0.0762 -0.3429,0.1905 -0.762,0.4191 -0.2667,0.9525 -0.876298,3.5052 -1.866898,7.6581 z"
         style="fill:#990000"
         id="path18749" />
      <path
         d="m 122.15225,133.54065 c -2.7813,1.905 -3.429,2.286 -3.81,2.286 -0.2667,0 -0.4572,-0.3048 -0.4572,-0.762 0,-1.0287 0.8763,-5.0292 2.286,-10.2489 0.4191,-0.6096 0.4953,-0.6858 1.1049,-1.3716 -1.8288,-0.4191 -3.1242,-0.5715 -4.8006,-0.5715 -1.5621,0 -2.3241,0.1524 -3.2766,0.762 -1.3716,0.8001 -2.9718,1.9812 -3.4671,2.5146 -1.4478,1.6002 -3.0099,6.7437 -3.0099,9.8298 0,1.8288 0.6096,3.048 1.5621,3.048 0.8382,0 2.0955,-0.762 6.858,-4.191 -0.4191,1.9431 -0.5715,2.8956 -0.5715,3.3909 0,0.5334 0.2286,0.8001 0.6096,0.8001 0.4953,0 0.8001,-0.1524 3.5052,-1.9431 1.2954,-0.8763 2.0193,-1.3716 3.429,-2.4003 z m -6.7056,-0.2667 c -1.3335,0.9906 -2.0193,1.4859 -2.0574,1.524 -1.2573,0.8001 -2.2479,1.2954 -2.7432,1.2954 -0.6477,0 -0.9906,-0.6858 -0.9906,-1.905 0,-1.9431 0.5715,-4.4577 1.5621,-6.6675 0.9144,-2.0955 1.7526,-2.8956 3.048,-2.8956 0.6858,0 1.9812,0.1905 3.2385,0.4953 -0.762,2.7432 -1.0287,3.7719 -1.0668,3.9624 -0.2286,0.9525 -0.4191,1.905 -0.6477,2.8956 -0.0381,0.1905 -0.1524,0.6477 -0.3429,1.2954 z"
         style="fill:#990000"
         id="path18746" />
      <path
         d="m 131.10576,133.61685 c -0.8001,0.4572 -0.8001,0.4572 -2.4384,1.4859 -1.1049,0.6858 -1.7526,0.9906 -2.1717,0.9906 -0.381,0 -0.6858,-0.4572 -0.6858,-0.9906 v -0.3429 -0.3429 c 0,-0.6858 1.7145,-8.0772 3.1242,-13.4493 1.4859,-5.6388 1.8288,-6.2865 3.5052,-6.2865 0.5715,0 0.9525,0.0381 1.8669,0.2667 l 1.6383,-2.0193 c -0.8001,-0.1905 -1.1811,-0.2286 -1.7145,-0.2286 -1.524,0 -2.7051,0.5715 -4.572,2.2479 -1.6764,1.4859 -2.0955,2.0955 -2.5908,3.4671 -0.3048,0.9144 -1.143,4.0005 -1.524,5.6769 l -2.7432,11.9253 c -0.0381,0.2286 -0.0762,0.4572 -0.0762,0.6858 0,1.1811 0.6477,2.3241 1.2573,2.3241 h 0.2286 0.1143 c 0.2286,0.1143 1.4478,-0.7239 6.7818,-4.572 z"
         style="fill:#990000"
         id="path18743" />
      <path
         d="m 138.45902,138.53175 c 0.9906,0.0762 1.4859,0.1143 2.0955,0.1143 1.6383,0 2.667,-0.2286 3.6576,-0.8382 1.8669,-1.143 3.7719,-3.81 4.9911,-7.0485 0.6096,-1.6002 0.8382,-2.4384 2.4765,-9.0678 0.9525,4.1148 0.9525,4.1529 1.3716,5.9055 1.0668,4.3815 2.1336,7.6581 3.3528,10.0965 2.3241,4.7244 5.6769,7.0485 10.1727,7.0485 1.9431,0 3.3147,-0.3429 5.0292,-1.3335 l -0.9144,-3.3909 c -1.143,2.667 -2.2098,3.6957 -3.8862,3.6957 -2.4003,0 -4.6101,-1.8669 -6.5532,-5.5626 0.6477,-3.2766 0.9525,-4.7625 1.9431,-8.763 1.6383,-6.6294 2.4765,-9.3726 3.6957,-11.8872 0.8001,-1.6383 1.7145,-2.2098 3.4671,-2.2098 0.3048,0 0.5334,0 1.0287,0.0762 l 1.4097,-2.5527 c -0.4572,-0.0381 -0.8763,-0.0762 -1.1811,-0.0762 -1.6002,0 -3.3147,1.1049 -5.2959,3.429 -1.8288,2.1336 -2.5146,4.0386 -4.3815,12.3063 -0.381,1.7907 -0.8001,3.5814 -1.2192,5.4102 -0.0381,0.1905 -0.2286,0.9906 -0.5715,2.1717 -1.6383,-3.1623 -2.5527,-5.9436 -5.6769,-17.7546 l -0.6858,-2.4765 -1.2954,1.1811 c -0.9144,-0.0762 -1.3716,-0.1143 -2.0955,-0.1143 -2.3241,0 -3.6576,0.4191 -5.0673,1.4859 -2.4003,1.905 -4.0767,4.6482 -4.0767,6.7437 0,0.9906 0.2667,1.9431 0.9525,3.3528 l 2.6289,-1.7907 c -0.9525,-2.0574 -1.2192,-2.8575 -1.2192,-3.8481 0,-1.143 0.6477,-2.1717 1.7145,-2.7432 0.9144,-0.4953 1.7907,-0.6477 3.5814,-0.6477 0.9525,0 1.5621,0 2.8956,0.0762 -1.7526,7.6581 -3.2385,12.4587 -4.4958,14.7066 -0.8001,1.4097 -1.6383,1.8288 -3.6576,1.8288 -0.8001,0 -1.2954,-0.0381 -2.3622,-0.1524 z"
         style="fill:#990000"
         id="path18740" />
      <path
         d="m 176.55908,122.87265 c -1.524,0 -3.9624,1.1049 -6.2103,2.7813 -2.4384,1.8288 -4.1529,5.7912 -4.1529,9.6012 0,2.286 1.2954,3.7719 3.3147,3.7719 1.0668,0 2.1717,-0.381 3.8862,-1.2954 1.905,-1.0668 3.1623,-2.0193 3.8481,-2.8956 1.524,-2.0955 2.7432,-5.8293 2.7432,-8.4582 0,-2.0574 -1.4097,-3.5052 -3.429,-3.5052 z m -1.9812,1.7907 c 1.524,0 2.4765,1.4478 2.4765,3.7719 0,1.6383 -0.5334,3.5814 -1.4478,5.4483 -1.1049,2.1717 -2.4765,3.3528 -3.9243,3.3528 -1.5621,0 -2.5527,-1.4097 -2.5527,-3.5814 0,-4.4196 2.7813,-8.9916 5.4483,-8.9916 z"
         style="fill:#990000"
         id="path18737" />
      <path
         d="m 182.27403,130.34025 c 1.1049,-3.429 1.3716,-3.7719 2.7813,-3.8481 2.1336,-0.0381 2.7051,-0.0762 3.6576,-0.3048 -2.2479,2.5146 -2.8575,3.2766 -3.3909,4.1529 -1.1049,1.8288 -1.7526,4.0005 -1.7526,5.8674 0,1.7526 0.8001,2.8194 2.0574,2.8194 3.0099,0 6.9723,-3.1623 9.6012,-7.6581 1.524,-2.5527 2.5146,-5.5245 2.5146,-7.4295 0,-0.9144 -0.2667,-1.4097 -0.9906,-2.0574 -0.9144,0.2667 -1.3335,0.4191 -2.5527,1.0287 0.4572,1.0287 0.6096,1.6002 0.6096,2.667 0,2.3241 -0.6858,4.7244 -1.9812,6.9342 -1.4859,2.5146 -3.5814,4.3434 -4.9911,4.3434 -0.8763,0 -1.524,-0.9906 -1.524,-2.286 0,-1.7526 0.6096,-3.8481 1.6764,-5.7531 0.762,-1.3716 1.524,-2.4003 3.2766,-4.4196 v -0.2667 c 0,-0.0762 0,-0.2286 -0.0381,-0.4191 h -0.381 c -0.4191,0.5334 -0.8382,0.6477 -2.0193,0.6477 -0.4953,0 -0.9525,0 -2.1336,-0.0762 -0.9525,-0.0381 -1.6002,-0.0762 -1.8669,-0.0762 -0.762,0 -1.1049,0.1143 -1.3335,0.4191 -0.4953,0.6096 -1.1049,2.1717 -1.8669,4.9149 z"
         style="fill:#990000"
         id="path18734" />
      <path
         d="m 209.47742,133.31205 c -3.048,2.5908 -4.6863,3.5433 -6.1341,3.5433 -0.9906,0 -1.7526,-0.6477 -2.0193,-1.6383 -0.1524,-0.6096 -0.1905,-1.0287 -0.1905,-2.1336 1.7526,-1.1049 2.8194,-1.8669 5.0673,-3.5433 2.0955,-1.5621 2.8575,-2.8194 2.8575,-4.5339 0,-1.3335 -0.8001,-2.1336 -2.1717,-2.1336 -0.8382,0 -1.4097,0.1905 -2.3241,0.6858 -1.4478,0.8382 -2.7432,1.8669 -3.5052,2.7813 -1.4478,1.7526 -2.7432,5.9436 -2.7432,9.0297 0,2.2479 1.1811,3.6576 3.1242,3.6576 2.2479,0 5.1435,-1.6764 8.001,-4.6101 z m -8.2296,-1.6002 c 0.6477,-4.1148 2.3622,-7.239 4.0386,-7.239 0.6096,0 1.0287,0.6096 1.0287,1.5621 0,1.905 -1.1049,3.1242 -5.0673,5.6769 z"
         style="fill:#990000"
         id="path18731" />
      <path
         d="m 219.87876,133.61685 c -0.8001,0.4572 -0.8001,0.4572 -2.4384,1.4859 -1.1049,0.6858 -1.7526,0.9906 -2.1717,0.9906 -0.381,0 -0.6858,-0.4572 -0.6858,-0.9906 v -0.3429 -0.3429 c 0,-0.6858 1.7145,-8.0772 3.1242,-13.4493 1.4859,-5.6388 1.8288,-6.2865 3.5052,-6.2865 0.5715,0 0.9525,0.0381 1.8669,0.2667 l 1.6383,-2.0193 c -0.8001,-0.1905 -1.1811,-0.2286 -1.7145,-0.2286 -1.524,0 -2.7051,0.5715 -4.572,2.2479 -1.6764,1.4859 -2.0955,2.0955 -2.5908,3.4671 -0.3048,0.9144 -1.143,4.0005 -1.524,5.6769 l -2.7432,11.9253 c -0.0381,0.2286 -0.0762,0.4572 -0.0762,0.6858 0,1.1811 0.6477,2.3241 1.2573,2.3241 h 0.2286 0.1143 c 0.2286,0.1143 1.4478,-0.7239 6.7818,-4.572 z"
         style="fill:#990000"
         id="path18728" />
    </g>
  </g>
</svg>
